<mxfile host="app.diagrams.net" modified="2023-10-04T09:45:18.868Z" agent="Mozilla/5.0 (Windows NT 10.0; Win64; x64) AppleWebKit/537.36 (KHTML, like Gecko) Chrome/117.0.0.0 Safari/537.36" etag="03TuXU7P64GsnDHe5a_A" version="21.8.2" type="device">
  <diagram id="R2lEEEUBdFMjLlhIrx00" name="Page-1">
    <mxGraphModel dx="1885" dy="536" grid="1" gridSize="10" guides="1" tooltips="1" connect="1" arrows="1" fold="1" page="1" pageScale="1" pageWidth="850" pageHeight="1100" math="0" shadow="0" extFonts="Permanent Marker^https://fonts.googleapis.com/css?family=Permanent+Marker">
      <root>
        <mxCell id="0" />
        <mxCell id="1" parent="0" />
        <mxCell id="ZOhdCvoYYMFn_385IZt6-8" style="edgeStyle=orthogonalEdgeStyle;rounded=0;orthogonalLoop=1;jettySize=auto;html=1;exitX=0;exitY=0.5;exitDx=0;exitDy=0;entryX=1;entryY=0.5;entryDx=0;entryDy=0;" edge="1" parent="1" source="ZOhdCvoYYMFn_385IZt6-1" target="ZOhdCvoYYMFn_385IZt6-2">
          <mxGeometry relative="1" as="geometry" />
        </mxCell>
        <mxCell id="ZOhdCvoYYMFn_385IZt6-9" style="edgeStyle=orthogonalEdgeStyle;rounded=0;orthogonalLoop=1;jettySize=auto;html=1;exitX=1;exitY=0.5;exitDx=0;exitDy=0;entryX=0;entryY=0.5;entryDx=0;entryDy=0;" edge="1" parent="1" source="ZOhdCvoYYMFn_385IZt6-1" target="ZOhdCvoYYMFn_385IZt6-3">
          <mxGeometry relative="1" as="geometry" />
        </mxCell>
        <mxCell id="ZOhdCvoYYMFn_385IZt6-1" value="Asignado" style="rhombus;whiteSpace=wrap;html=1;" vertex="1" parent="1">
          <mxGeometry x="320" y="160" width="110" height="80" as="geometry" />
        </mxCell>
        <mxCell id="ZOhdCvoYYMFn_385IZt6-6" style="edgeStyle=orthogonalEdgeStyle;rounded=0;orthogonalLoop=1;jettySize=auto;html=1;exitX=0.75;exitY=0;exitDx=0;exitDy=0;entryX=0.5;entryY=1;entryDx=0;entryDy=0;" edge="1" parent="1" source="ZOhdCvoYYMFn_385IZt6-2" target="ZOhdCvoYYMFn_385IZt6-4">
          <mxGeometry relative="1" as="geometry" />
        </mxCell>
        <mxCell id="ZOhdCvoYYMFn_385IZt6-7" style="edgeStyle=orthogonalEdgeStyle;rounded=0;orthogonalLoop=1;jettySize=auto;html=1;exitX=0.25;exitY=0;exitDx=0;exitDy=0;" edge="1" parent="1" source="ZOhdCvoYYMFn_385IZt6-2" target="ZOhdCvoYYMFn_385IZt6-5">
          <mxGeometry relative="1" as="geometry" />
        </mxCell>
        <mxCell id="ZOhdCvoYYMFn_385IZt6-2" value="Categoria" style="rounded=0;whiteSpace=wrap;html=1;" vertex="1" parent="1">
          <mxGeometry x="130" y="170" width="120" height="60" as="geometry" />
        </mxCell>
        <mxCell id="ZOhdCvoYYMFn_385IZt6-16" style="edgeStyle=orthogonalEdgeStyle;rounded=0;orthogonalLoop=1;jettySize=auto;html=1;exitX=0.75;exitY=0;exitDx=0;exitDy=0;entryX=0.5;entryY=1;entryDx=0;entryDy=0;" edge="1" parent="1" source="ZOhdCvoYYMFn_385IZt6-3" target="ZOhdCvoYYMFn_385IZt6-13">
          <mxGeometry relative="1" as="geometry" />
        </mxCell>
        <mxCell id="ZOhdCvoYYMFn_385IZt6-17" style="edgeStyle=orthogonalEdgeStyle;rounded=0;orthogonalLoop=1;jettySize=auto;html=1;exitX=0.25;exitY=0;exitDx=0;exitDy=0;entryX=0.5;entryY=1;entryDx=0;entryDy=0;" edge="1" parent="1" source="ZOhdCvoYYMFn_385IZt6-3" target="ZOhdCvoYYMFn_385IZt6-14">
          <mxGeometry relative="1" as="geometry" />
        </mxCell>
        <mxCell id="ZOhdCvoYYMFn_385IZt6-18" style="edgeStyle=orthogonalEdgeStyle;rounded=0;orthogonalLoop=1;jettySize=auto;html=1;exitX=1;exitY=0;exitDx=0;exitDy=0;entryX=0;entryY=0.5;entryDx=0;entryDy=0;" edge="1" parent="1" source="ZOhdCvoYYMFn_385IZt6-3" target="ZOhdCvoYYMFn_385IZt6-15">
          <mxGeometry relative="1" as="geometry" />
        </mxCell>
        <mxCell id="ZOhdCvoYYMFn_385IZt6-3" value="Producto" style="rounded=0;whiteSpace=wrap;html=1;" vertex="1" parent="1">
          <mxGeometry x="510" y="170" width="120" height="60" as="geometry" />
        </mxCell>
        <mxCell id="ZOhdCvoYYMFn_385IZt6-4" value="Nombre" style="ellipse;whiteSpace=wrap;html=1;" vertex="1" parent="1">
          <mxGeometry x="180" y="50" width="90" height="60" as="geometry" />
        </mxCell>
        <mxCell id="ZOhdCvoYYMFn_385IZt6-5" value="Codigo" style="ellipse;whiteSpace=wrap;html=1;" vertex="1" parent="1">
          <mxGeometry x="40" y="50" width="90" height="60" as="geometry" />
        </mxCell>
        <mxCell id="ZOhdCvoYYMFn_385IZt6-10" value="1,n" style="text;html=1;strokeColor=none;fillColor=none;align=center;verticalAlign=middle;whiteSpace=wrap;rounded=0;" vertex="1" parent="1">
          <mxGeometry x="260" y="210" width="60" height="30" as="geometry" />
        </mxCell>
        <mxCell id="ZOhdCvoYYMFn_385IZt6-11" value="0,n" style="text;html=1;strokeColor=none;fillColor=none;align=center;verticalAlign=middle;whiteSpace=wrap;rounded=0;" vertex="1" parent="1">
          <mxGeometry x="430" y="210" width="60" height="30" as="geometry" />
        </mxCell>
        <mxCell id="ZOhdCvoYYMFn_385IZt6-12" value="M:N" style="text;html=1;strokeColor=none;fillColor=none;align=center;verticalAlign=middle;whiteSpace=wrap;rounded=0;" vertex="1" parent="1">
          <mxGeometry x="345" y="120" width="60" height="30" as="geometry" />
        </mxCell>
        <mxCell id="ZOhdCvoYYMFn_385IZt6-13" value="Nombre" style="ellipse;whiteSpace=wrap;html=1;" vertex="1" parent="1">
          <mxGeometry x="570" y="50" width="90" height="60" as="geometry" />
        </mxCell>
        <mxCell id="ZOhdCvoYYMFn_385IZt6-14" value="Codigo" style="ellipse;whiteSpace=wrap;html=1;" vertex="1" parent="1">
          <mxGeometry x="450" y="50" width="90" height="60" as="geometry" />
        </mxCell>
        <mxCell id="ZOhdCvoYYMFn_385IZt6-15" value="Precio" style="ellipse;whiteSpace=wrap;html=1;" vertex="1" parent="1">
          <mxGeometry x="690" y="100" width="90" height="60" as="geometry" />
        </mxCell>
        <mxCell id="ZOhdCvoYYMFn_385IZt6-37" style="edgeStyle=orthogonalEdgeStyle;rounded=0;orthogonalLoop=1;jettySize=auto;html=1;exitX=0;exitY=0.5;exitDx=0;exitDy=0;entryX=1;entryY=0.5;entryDx=0;entryDy=0;" edge="1" parent="1" source="ZOhdCvoYYMFn_385IZt6-39" target="ZOhdCvoYYMFn_385IZt6-42">
          <mxGeometry relative="1" as="geometry" />
        </mxCell>
        <mxCell id="ZOhdCvoYYMFn_385IZt6-38" style="edgeStyle=orthogonalEdgeStyle;rounded=0;orthogonalLoop=1;jettySize=auto;html=1;exitX=1;exitY=0.5;exitDx=0;exitDy=0;entryX=0;entryY=0.5;entryDx=0;entryDy=0;" edge="1" parent="1" source="ZOhdCvoYYMFn_385IZt6-39" target="ZOhdCvoYYMFn_385IZt6-46">
          <mxGeometry relative="1" as="geometry" />
        </mxCell>
        <mxCell id="ZOhdCvoYYMFn_385IZt6-39" value="Compuesta" style="rhombus;whiteSpace=wrap;html=1;" vertex="1" parent="1">
          <mxGeometry x="310" y="530" width="110" height="80" as="geometry" />
        </mxCell>
        <mxCell id="ZOhdCvoYYMFn_385IZt6-40" style="edgeStyle=orthogonalEdgeStyle;rounded=0;orthogonalLoop=1;jettySize=auto;html=1;exitX=0.75;exitY=0;exitDx=0;exitDy=0;entryX=0.5;entryY=1;entryDx=0;entryDy=0;" edge="1" parent="1" source="ZOhdCvoYYMFn_385IZt6-42" target="ZOhdCvoYYMFn_385IZt6-47">
          <mxGeometry relative="1" as="geometry" />
        </mxCell>
        <mxCell id="ZOhdCvoYYMFn_385IZt6-41" style="edgeStyle=orthogonalEdgeStyle;rounded=0;orthogonalLoop=1;jettySize=auto;html=1;exitX=0.25;exitY=0;exitDx=0;exitDy=0;" edge="1" parent="1" source="ZOhdCvoYYMFn_385IZt6-42" target="ZOhdCvoYYMFn_385IZt6-48">
          <mxGeometry relative="1" as="geometry" />
        </mxCell>
        <mxCell id="ZOhdCvoYYMFn_385IZt6-60" style="edgeStyle=orthogonalEdgeStyle;rounded=0;orthogonalLoop=1;jettySize=auto;html=1;exitX=1;exitY=0;exitDx=0;exitDy=0;entryX=0.5;entryY=1;entryDx=0;entryDy=0;" edge="1" parent="1" source="ZOhdCvoYYMFn_385IZt6-42" target="ZOhdCvoYYMFn_385IZt6-59">
          <mxGeometry relative="1" as="geometry" />
        </mxCell>
        <mxCell id="ZOhdCvoYYMFn_385IZt6-42" value="Compras" style="rounded=0;whiteSpace=wrap;html=1;" vertex="1" parent="1">
          <mxGeometry x="120" y="540" width="120" height="60" as="geometry" />
        </mxCell>
        <mxCell id="ZOhdCvoYYMFn_385IZt6-43" style="edgeStyle=orthogonalEdgeStyle;rounded=0;orthogonalLoop=1;jettySize=auto;html=1;exitX=0.75;exitY=0;exitDx=0;exitDy=0;entryX=0.5;entryY=1;entryDx=0;entryDy=0;" edge="1" parent="1" source="ZOhdCvoYYMFn_385IZt6-46" target="ZOhdCvoYYMFn_385IZt6-52">
          <mxGeometry relative="1" as="geometry" />
        </mxCell>
        <mxCell id="ZOhdCvoYYMFn_385IZt6-44" style="edgeStyle=orthogonalEdgeStyle;rounded=0;orthogonalLoop=1;jettySize=auto;html=1;exitX=0.25;exitY=0;exitDx=0;exitDy=0;entryX=0.5;entryY=1;entryDx=0;entryDy=0;" edge="1" parent="1" source="ZOhdCvoYYMFn_385IZt6-46" target="ZOhdCvoYYMFn_385IZt6-53">
          <mxGeometry relative="1" as="geometry" />
        </mxCell>
        <mxCell id="ZOhdCvoYYMFn_385IZt6-46" value="Productos" style="rounded=0;whiteSpace=wrap;html=1;" vertex="1" parent="1">
          <mxGeometry x="500" y="540" width="120" height="60" as="geometry" />
        </mxCell>
        <mxCell id="ZOhdCvoYYMFn_385IZt6-47" value="Fecha compra" style="ellipse;whiteSpace=wrap;html=1;" vertex="1" parent="1">
          <mxGeometry x="170" y="420" width="90" height="60" as="geometry" />
        </mxCell>
        <mxCell id="ZOhdCvoYYMFn_385IZt6-48" value="Nº Facturación" style="ellipse;whiteSpace=wrap;html=1;" vertex="1" parent="1">
          <mxGeometry x="30" y="420" width="90" height="60" as="geometry" />
        </mxCell>
        <mxCell id="ZOhdCvoYYMFn_385IZt6-49" value="1,n" style="text;html=1;strokeColor=none;fillColor=none;align=center;verticalAlign=middle;whiteSpace=wrap;rounded=0;" vertex="1" parent="1">
          <mxGeometry x="250" y="580" width="60" height="30" as="geometry" />
        </mxCell>
        <mxCell id="ZOhdCvoYYMFn_385IZt6-50" value="1,m" style="text;html=1;strokeColor=none;fillColor=none;align=center;verticalAlign=middle;whiteSpace=wrap;rounded=0;" vertex="1" parent="1">
          <mxGeometry x="420" y="590" width="60" height="30" as="geometry" />
        </mxCell>
        <mxCell id="ZOhdCvoYYMFn_385IZt6-51" value="M:N" style="text;html=1;strokeColor=none;fillColor=none;align=center;verticalAlign=middle;whiteSpace=wrap;rounded=0;" vertex="1" parent="1">
          <mxGeometry x="335" y="610" width="60" height="30" as="geometry" />
        </mxCell>
        <mxCell id="ZOhdCvoYYMFn_385IZt6-52" value="Nombre" style="ellipse;whiteSpace=wrap;html=1;" vertex="1" parent="1">
          <mxGeometry x="560" y="420" width="90" height="60" as="geometry" />
        </mxCell>
        <mxCell id="ZOhdCvoYYMFn_385IZt6-53" value="Codigo producto" style="ellipse;whiteSpace=wrap;html=1;" vertex="1" parent="1">
          <mxGeometry x="440" y="420" width="90" height="60" as="geometry" />
        </mxCell>
        <mxCell id="ZOhdCvoYYMFn_385IZt6-57" style="edgeStyle=orthogonalEdgeStyle;rounded=0;orthogonalLoop=1;jettySize=auto;html=1;exitX=0.5;exitY=0;exitDx=0;exitDy=0;" edge="1" parent="1" source="ZOhdCvoYYMFn_385IZt6-55" target="ZOhdCvoYYMFn_385IZt6-56">
          <mxGeometry relative="1" as="geometry" />
        </mxCell>
        <mxCell id="ZOhdCvoYYMFn_385IZt6-58" style="edgeStyle=orthogonalEdgeStyle;rounded=0;orthogonalLoop=1;jettySize=auto;html=1;exitX=1;exitY=0.5;exitDx=0;exitDy=0;entryX=0;entryY=0.5;entryDx=0;entryDy=0;" edge="1" parent="1" source="ZOhdCvoYYMFn_385IZt6-55" target="ZOhdCvoYYMFn_385IZt6-42">
          <mxGeometry relative="1" as="geometry" />
        </mxCell>
        <mxCell id="ZOhdCvoYYMFn_385IZt6-55" value="Realiza" style="rhombus;whiteSpace=wrap;html=1;" vertex="1" parent="1">
          <mxGeometry x="-130" y="530" width="110" height="80" as="geometry" />
        </mxCell>
        <mxCell id="ZOhdCvoYYMFn_385IZt6-66" style="edgeStyle=orthogonalEdgeStyle;rounded=0;orthogonalLoop=1;jettySize=auto;html=1;exitX=0;exitY=0.25;exitDx=0;exitDy=0;entryX=1;entryY=0.5;entryDx=0;entryDy=0;" edge="1" parent="1" source="ZOhdCvoYYMFn_385IZt6-56" target="ZOhdCvoYYMFn_385IZt6-65">
          <mxGeometry relative="1" as="geometry" />
        </mxCell>
        <mxCell id="ZOhdCvoYYMFn_385IZt6-67" style="edgeStyle=orthogonalEdgeStyle;rounded=0;orthogonalLoop=1;jettySize=auto;html=1;exitX=0;exitY=0;exitDx=0;exitDy=0;entryX=0.5;entryY=1;entryDx=0;entryDy=0;" edge="1" parent="1" source="ZOhdCvoYYMFn_385IZt6-56" target="ZOhdCvoYYMFn_385IZt6-62">
          <mxGeometry relative="1" as="geometry" />
        </mxCell>
        <mxCell id="ZOhdCvoYYMFn_385IZt6-68" style="edgeStyle=orthogonalEdgeStyle;rounded=0;orthogonalLoop=1;jettySize=auto;html=1;exitX=0.5;exitY=0;exitDx=0;exitDy=0;entryX=0.5;entryY=1;entryDx=0;entryDy=0;" edge="1" parent="1" source="ZOhdCvoYYMFn_385IZt6-56" target="ZOhdCvoYYMFn_385IZt6-61">
          <mxGeometry relative="1" as="geometry" />
        </mxCell>
        <mxCell id="ZOhdCvoYYMFn_385IZt6-69" style="edgeStyle=orthogonalEdgeStyle;rounded=0;orthogonalLoop=1;jettySize=auto;html=1;exitX=0.75;exitY=0;exitDx=0;exitDy=0;entryX=0;entryY=1;entryDx=0;entryDy=0;" edge="1" parent="1" source="ZOhdCvoYYMFn_385IZt6-56" target="ZOhdCvoYYMFn_385IZt6-63">
          <mxGeometry relative="1" as="geometry" />
        </mxCell>
        <mxCell id="ZOhdCvoYYMFn_385IZt6-70" style="edgeStyle=orthogonalEdgeStyle;rounded=0;orthogonalLoop=1;jettySize=auto;html=1;exitX=1;exitY=0;exitDx=0;exitDy=0;entryX=0;entryY=0.5;entryDx=0;entryDy=0;" edge="1" parent="1" source="ZOhdCvoYYMFn_385IZt6-56" target="ZOhdCvoYYMFn_385IZt6-64">
          <mxGeometry relative="1" as="geometry" />
        </mxCell>
        <mxCell id="ZOhdCvoYYMFn_385IZt6-56" value="Clientes" style="rounded=0;whiteSpace=wrap;html=1;" vertex="1" parent="1">
          <mxGeometry x="-230" y="410" width="120" height="60" as="geometry" />
        </mxCell>
        <mxCell id="ZOhdCvoYYMFn_385IZt6-59" value="Total" style="ellipse;whiteSpace=wrap;html=1;" vertex="1" parent="1">
          <mxGeometry x="270" y="410" width="90" height="60" as="geometry" />
        </mxCell>
        <mxCell id="ZOhdCvoYYMFn_385IZt6-61" value="DNI" style="ellipse;whiteSpace=wrap;html=1;" vertex="1" parent="1">
          <mxGeometry x="-215" y="280" width="90" height="60" as="geometry" />
        </mxCell>
        <mxCell id="ZOhdCvoYYMFn_385IZt6-62" value="Apellidos" style="ellipse;whiteSpace=wrap;html=1;" vertex="1" parent="1">
          <mxGeometry x="-330" y="290" width="90" height="60" as="geometry" />
        </mxCell>
        <mxCell id="ZOhdCvoYYMFn_385IZt6-63" value="Dirección" style="ellipse;whiteSpace=wrap;html=1;" vertex="1" parent="1">
          <mxGeometry x="-90" y="280" width="90" height="60" as="geometry" />
        </mxCell>
        <mxCell id="ZOhdCvoYYMFn_385IZt6-64" value="Fecha de lanzamiento" style="ellipse;whiteSpace=wrap;html=1;" vertex="1" parent="1">
          <mxGeometry x="-40" y="340" width="90" height="60" as="geometry" />
        </mxCell>
        <mxCell id="ZOhdCvoYYMFn_385IZt6-65" value="Nombre" style="ellipse;whiteSpace=wrap;html=1;" vertex="1" parent="1">
          <mxGeometry x="-400" y="370" width="90" height="60" as="geometry" />
        </mxCell>
        <mxCell id="ZOhdCvoYYMFn_385IZt6-74" value="1,n" style="text;html=1;strokeColor=none;fillColor=none;align=center;verticalAlign=middle;whiteSpace=wrap;rounded=0;" vertex="1" parent="1">
          <mxGeometry x="10" y="540" width="60" height="30" as="geometry" />
        </mxCell>
        <mxCell id="ZOhdCvoYYMFn_385IZt6-75" value="1,1" style="text;html=1;strokeColor=none;fillColor=none;align=center;verticalAlign=middle;whiteSpace=wrap;rounded=0;" vertex="1" parent="1">
          <mxGeometry x="-200" y="510" width="60" height="30" as="geometry" />
        </mxCell>
        <mxCell id="ZOhdCvoYYMFn_385IZt6-76" value="1;N" style="text;html=1;strokeColor=none;fillColor=none;align=center;verticalAlign=middle;whiteSpace=wrap;rounded=0;" vertex="1" parent="1">
          <mxGeometry x="-110" y="630" width="60" height="30" as="geometry" />
        </mxCell>
      </root>
    </mxGraphModel>
  </diagram>
</mxfile>
